name GIL08_xslow2EmgEnv.mot
datacolumns 51
datarows 10
range 0.62962961 0.63796294
endheader
                time	   rect_fem_l_emgRec	   rect_fem_l_emgEnv	   rect_fem_l_emgAve	   rect_fem_l_emgSDp	   rect_fem_l_emgSDm	   rect_fem_r_emgRec	   rect_fem_r_emgEnv	   rect_fem_r_emgAve	   rect_fem_r_emgSDp	   rect_fem_r_emgSDm	   med_hams_l_emgRec	   med_hams_l_emgEnv	   med_hams_l_emgAve	   med_hams_l_emgSDp	   med_hams_l_emgSDm	   med_hams_r_emgRec	   med_hams_r_emgEnv	   med_hams_r_emgAve	   med_hams_r_emgSDp	   med_hams_r_emgSDm	   lat_hams_l_emgRec	   lat_hams_l_emgEnv	   lat_hams_l_emgAve	   lat_hams_l_emgSDp	   lat_hams_l_emgSDm	   lat_hams_r_emgRec	   lat_hams_r_emgEnv	   lat_hams_r_emgAve	   lat_hams_r_emgSDp	   lat_hams_r_emgSDm	    tib_ant_l_emgRec	    tib_ant_l_emgEnv	    tib_ant_l_emgAve	    tib_ant_l_emgSDp	    tib_ant_l_emgSDm	    tib_ant_r_emgRec	    tib_ant_r_emgEnv	    tib_ant_r_emgAve	    tib_ant_r_emgSDp	    tib_ant_r_emgSDm	    gas_sol_l_emgRec	    gas_sol_l_emgEnv	    gas_sol_l_emgAve	    gas_sol_l_emgSDp	    gas_sol_l_emgSDm	    gas_sol_r_emgRec	    gas_sol_r_emgEnv	    gas_sol_r_emgAve	    gas_sol_r_emgSDp	    gas_sol_r_emgSDm	
          0.62962961	          0.01600937	          0.16775439	          0.12157607	          0.16947786	          0.07367428	          0.05743751	          0.35131870	          0.36000079	          0.54517020	          0.17483138	          0.01770276	          0.04208761	          0.04423184	          0.07019563	          0.01826804	          0.00877374	          0.00361731	          0.12161385	          0.20242561	          0.04080210	          0.00741418	          0.01575990	          0.03749289	          0.04069314	          0.03429264	          0.04072057	          0.11819886	          0.19824621	          0.27900129	          0.11749113	          0.03416841	          0.10310430	          0.19918029	          0.25094775	          0.14741283	          0.09147527	          0.33080869	          0.15366364	          0.20526772	          0.10205955	          0.17362234	          0.27484689	          0.51216447	          0.64459662	          0.37973233	          0.01732224	          0.03871937	          0.06604532	          0.09447260	          0.03761804	
          0.63055557	          0.03504839	          0.16881217	          0.12171121	          0.16944072	          0.07398170	          0.12036949	          0.35218079	          0.35961196	          0.54430619	          0.17491773	          0.01600409	          0.04258798	          0.04485613	          0.07150355	          0.01820871	          0.01137762	          0.00386805	          0.12196852	          0.20266276	          0.04127427	          0.00696068	          0.01584820	          0.03780006	          0.04095226	          0.03464787	          0.08874693	          0.11689653	          0.19888438	          0.27966301	          0.11810575	          0.01520346	          0.10596863	          0.19998674	          0.25208024	          0.14789324	          0.14035529	          0.33325242	          0.15399498	          0.20575297	          0.10223699	          0.15200645	          0.27520702	          0.51448858	          0.64845945	          0.38051771	          0.02761905	          0.03884492	          0.06590297	          0.09447617	          0.03732977	
          0.63148147	          0.05430903	          0.16989539	          0.12184806	          0.16941076	          0.07428537	          0.20586595	          0.35308400	          0.35921082	          0.54342587	          0.17499577	          0.01489747	          0.04308730	          0.04549181	          0.07284438	          0.01813924	          0.00506549	          0.00415360	          0.12232313	          0.20289820	          0.04174807	          0.01046534	          0.01593689	          0.03810213	          0.04121363	          0.03499063	          0.11011073	          0.11566309	          0.19952039	          0.28032099	          0.11871979	          0.02204419	          0.10891140	          0.20079547	          0.25321418	          0.14837677	          0.20608671	          0.33546349	          0.15433913	          0.20625357	          0.10242470	          0.11634425	          0.27596487	          0.51678866	          0.65229121	          0.38128611	          0.04100580	          0.03899131	          0.06575767	          0.09447662	          0.03703872	
          0.63240743	          0.08190532	          0.17100299	          0.12198637	          0.16938790	          0.07458485	          0.29338650	          0.35402628	          0.35879731	          0.54252931	          0.17506531	          0.02889101	          0.04358410	          0.04613899	          0.07421852	          0.01805947	          0.00547857	          0.00447457	          0.12267783	          0.20313205	          0.04222360	          0.00332526	          0.01602584	          0.03839901	          0.04147731	          0.03532071	          0.15129803	          0.11450022	          0.20015433	          0.28097536	          0.11933330	          0.04346251	          0.11192711	          0.20160657	          0.25434960	          0.14886354	          0.23723435	          0.33743265	          0.15469615	          0.20676961	          0.10262269	          0.12959164	          0.27712088	          0.51906431	          0.65609121	          0.38203740	          0.05099350	          0.03915857	          0.06560946	          0.09447399	          0.03674494	
          0.63333333	          0.17017373	          0.17213384	          0.12212601	          0.16937222	          0.07487981	          0.27306521	          0.35500533	          0.35837150	          0.54161657	          0.17512642	          0.03475679	          0.04407690	          0.04679763	          0.07562603	          0.01796924	          0.00128341	          0.00483149	          0.12303255	          0.20336433	          0.04270077	          0.00396881	          0.01611497	          0.03869054	          0.04174331	          0.03563778	          0.14831694	          0.11340939	          0.20078605	          0.28162602	          0.11994608	          0.00125930	          0.11501009	          0.20241983	          0.25548621	          0.14935346	          0.22303191	          0.33915130	          0.15506583	          0.20730090	          0.10283077	          0.17631325	          0.27867426	          0.52131480	          0.65985815	          0.38277145	          0.04203605	          0.03934668	          0.06545839	          0.09446829	          0.03644849	
          0.63425922	          0.15066492	          0.17328668	          0.12226680	          0.16936370	          0.07516990	          0.21138119	          0.35601873	          0.35793355	          0.54068790	          0.17517920	          0.02418239	          0.04456417	          0.04746779	          0.07706721	          0.01786837	          0.00669623	          0.00522484	          0.12338738	          0.20359521	          0.04317956	          0.00176360	          0.01620417	          0.03897660	          0.04201164	          0.03594157	          0.08852754	          0.11239190	          0.20141558	          0.28227300	          0.12055817	          0.01361770	          0.11815444	          0.20323522	          0.25662393	          0.14984652	          0.14923928	          0.34061155	          0.15544823	          0.20784752	          0.10304894	          0.18729817	          0.28062300	          0.52353966	          0.66359119	          0.38348813	          0.03293647	          0.03955550	          0.06530447	          0.09445953	          0.03614940	
          0.63518518	          0.08708463	          0.17446013	          0.12240858	          0.16936238	          0.07545479	          0.14383566	          0.35706383	          0.35748345	          0.53974333	          0.17522356	          0.01573064	          0.04504435	          0.04814955	          0.07854238	          0.01775672	          0.00494223	          0.00565504	          0.12374239	          0.20382477	          0.04366001	          0.00569199	          0.01629332	          0.03925709	          0.04228236	          0.03623183	          0.05391303	          0.11144883	          0.20204298	          0.28291643	          0.12116954	          0.03973834	          0.12135409	          0.20405282	          0.25776279	          0.15034285	          0.05513339	          0.34180624	          0.15584327	          0.20840945	          0.10327710	          0.10738148	          0.28296391	          0.52573842	          0.66728951	          0.38418733	          0.03030560	          0.03978484	          0.06514771	          0.09444773	          0.03584770	
          0.63611114	          0.12716766	          0.17565271	          0.12255122	          0.16936829	          0.07573415	          0.02052702	          0.35813786	          0.35702136	          0.53878309	          0.17525963	          0.01567242	          0.04551588	          0.04884290	          0.08005164	          0.01763416	          0.01028956	          0.00612242	          0.12409756	          0.20405309	          0.04414202	          0.00360976	          0.01638230	          0.03953190	          0.04255549	          0.03650830	          0.04802085	          0.11058108	          0.20266820	          0.28355625	          0.12178016	          0.03610383	          0.12460283	          0.20487243	          0.25890252	          0.15084234	          0.00249460	          0.34272896	          0.15625095	          0.20898668	          0.10351523	          0.04928506	          0.28569256	          0.52791047	          0.67095205	          0.38486889	          0.01682208	          0.04003444	          0.06498817	          0.09443290	          0.03554345	
          0.63703704	          0.11532724	          0.17686281	          0.12269447	          0.16938137	          0.07600757	          0.03983939	          0.35923787	          0.35654730	          0.53780727	          0.17528732	          0.00917378	          0.04597715	          0.04954780	          0.08159506	          0.01750053	          0.00293045	          0.00662724	          0.12445291	          0.20428025	          0.04462557	          0.00587123	          0.01647100	          0.03980086	          0.04283103	          0.03677068	          0.02238279	          0.10978937	          0.20329121	          0.28419250	          0.12238991	          0.00487779	          0.12789431	          0.20569400	          0.26004299	          0.15134502	          0.01568764	          0.34337410	          0.15667111	          0.20957908	          0.10376314	          0.21866433	          0.28880338	          0.53005505	          0.67457749	          0.38553260	          0.00083388	          0.04030395	          0.06482587	          0.09441504	          0.03523670	
          0.63796294	          0.00923523	          0.17808869	          0.12283830	          0.16940176	          0.07627485	          0.04401661	          0.36036079	          0.35606140	          0.53681608	          0.17530672	          0.00912064	          0.04642655	          0.05026430	          0.08317292	          0.01735568	          0.01157728	          0.00716970	          0.12480853	          0.20450638	          0.04511067	          0.00820809	          0.01655929	          0.04006391	          0.04310906	          0.03701876	          0.01458732	          0.10907421	          0.20391199	          0.28482521	          0.12299877	          0.01038453	          0.13122203	          0.20651746	          0.26118406	          0.15185086	          0.04823036	          0.34373685	          0.15710376	          0.21018670	          0.10402083	          0.29893776	          0.29228962	          0.53217191	          0.67816535	          0.38617846	          0.01388118	          0.04059294	          0.06466085	          0.09439419	          0.03492752	
